<svg width="184" height="148" viewBox="0 0 184 148" fill="none" xmlns="http://www.w3.org/2000/svg">
<circle cx="30" cy="60" r="29" stroke="#DC7000" stroke-width="2"/>
<path d="M38.75 58.75H23.925L28.4625 53.3C28.6747 53.0447 28.7768 52.7156 28.7463 52.3851C28.7158 52.0545 28.5553 51.7497 28.3 51.5375C28.0447 51.3253 27.7156 51.2232 27.3851 51.2537C27.0546 51.2842 26.7497 51.4447 26.5375 51.7L20.2875 59.2C20.2455 59.2596 20.2078 59.3223 20.175 59.3875C20.175 59.45 20.175 59.4875 20.0875 59.55C20.0308 59.6933 20.0012 59.8459 20 60C20.0012 60.1541 20.0308 60.3067 20.0875 60.45C20.0875 60.5125 20.0875 60.55 20.175 60.6125C20.2078 60.6777 20.2455 60.7403 20.2875 60.8L26.5375 68.3C26.655 68.4411 26.8022 68.5546 26.9686 68.6323C27.1349 68.7101 27.3164 68.7503 27.5 68.75C27.7921 68.7505 28.0751 68.6488 28.3 68.4625C28.4266 68.3575 28.5312 68.2287 28.6079 68.0832C28.6846 67.9378 28.7318 67.7787 28.7469 67.6149C28.762 67.4512 28.7447 67.2861 28.6959 67.1291C28.6471 66.9721 28.5678 66.8263 28.4625 66.7L23.925 61.25H38.75C39.0815 61.25 39.3995 61.1183 39.6339 60.8839C39.8683 60.6494 40 60.3315 40 60C40 59.6685 39.8683 59.3505 39.6339 59.1161C39.3995 58.8817 39.0815 58.75 38.75 58.75Z" fill="#DC7000"/>
<g filter="url(#filter0_d_0_1)">
<circle cx="110" cy="60" r="30" fill="#DC7000"/>
<circle cx="110" cy="60" r="29" stroke="#DC7000" stroke-width="2"/>
</g>
<path d="M101.25 58.75H116.075L111.537 53.3C111.325 53.0447 111.223 52.7156 111.254 52.3851C111.284 52.0545 111.445 51.7497 111.7 51.5375C111.955 51.3253 112.284 51.2232 112.615 51.2537C112.945 51.2842 113.25 51.4447 113.463 51.7L119.712 59.2C119.755 59.2596 119.792 59.3223 119.825 59.3875C119.825 59.45 119.825 59.4875 119.912 59.55C119.969 59.6933 119.999 59.8459 120 60C119.999 60.1541 119.969 60.3067 119.912 60.45C119.912 60.5125 119.913 60.55 119.825 60.6125C119.792 60.6777 119.755 60.7403 119.712 60.8L113.463 68.3C113.345 68.4411 113.198 68.5546 113.031 68.6323C112.865 68.7101 112.684 68.7503 112.5 68.75C112.208 68.7505 111.925 68.6488 111.7 68.4625C111.573 68.3575 111.469 68.2287 111.392 68.0832C111.315 67.9378 111.268 67.7787 111.253 67.6149C111.238 67.4512 111.255 67.2861 111.304 67.1291C111.353 66.9721 111.432 66.8263 111.537 66.7L116.075 61.25H101.25C100.918 61.25 100.601 61.1183 100.366 60.8839C100.132 60.6494 100 60.3315 100 60C100 59.6685 100.132 59.3505 100.366 59.1161C100.601 58.8817 100.918 58.75 101.25 58.75Z" fill="white"/>
<defs>
<filter id="filter0_d_0_1" x="36" y="0" width="148" height="148" filterUnits="userSpaceOnUse" color-interpolation-filters="sRGB">
<feFlood flood-opacity="0" result="BackgroundImageFix"/>
<feColorMatrix in="SourceAlpha" type="matrix" values="0 0 0 0 0 0 0 0 0 0 0 0 0 0 0 0 0 0 127 0" result="hardAlpha"/>
<feOffset dy="14"/>
<feGaussianBlur stdDeviation="22"/>
<feColorMatrix type="matrix" values="0 0 0 0 0.0561111 0 0 0 0 0.0777333 0 0 0 0 0.133333 0 0 0 0.08 0"/>
<feBlend mode="normal" in2="BackgroundImageFix" result="effect1_dropShadow_0_1"/>
<feBlend mode="normal" in="SourceGraphic" in2="effect1_dropShadow_0_1" result="shape"/>
</filter>
</defs>
</svg>
