<svg width="56" height="56" viewBox="0 0 56 56" fill="none" xmlns="http://www.w3.org/2000/svg">
<rect x="0.920776" y="0.5" width="55" height="55" rx="27.5" fill="#FFECEC"/>
<path d="M35.4208 25C35.4208 24.0807 35.2397 23.1705 34.8879 22.3212C34.5362 21.4719 34.0205 20.7003 33.3705 20.0503C32.7205 19.4002 31.9488 18.8846 31.0996 18.5328C30.2503 18.1811 29.34 18 28.4208 18C27.5015 18 26.5913 18.1811 25.742 18.5328C24.8927 18.8846 24.121 19.4002 23.471 20.0503C22.821 20.7003 22.3054 21.4719 21.9536 22.3212C21.6018 23.1705 21.4208 24.0807 21.4208 25C21.4208 26.387 21.8308 27.677 22.5258 28.765H22.5178C24.8778 32.46 28.4208 38 28.4208 38L34.3238 28.765H34.3168C35.0372 27.6414 35.4203 26.3347 35.4208 25ZM28.4208 28C27.6251 28 26.8621 27.6839 26.2995 27.1213C25.7368 26.5587 25.4208 25.7956 25.4208 25C25.4208 24.2044 25.7368 23.4413 26.2995 22.8787C26.8621 22.3161 27.6251 22 28.4208 22C29.2164 22 29.9795 22.3161 30.5421 22.8787C31.1047 23.4413 31.4208 24.2044 31.4208 25C31.4208 25.7956 31.1047 26.5587 30.5421 27.1213C29.9795 27.6839 29.2164 28 28.4208 28Z" fill="#DC7000"/>
</svg>
