<svg width="56" height="56" viewBox="0 0 56 56" fill="none" xmlns="http://www.w3.org/2000/svg">
<rect x="0.420776" y="0.5" width="55" height="55" rx="27.5" fill="#FFECEC"/>
<path d="M35.9208 19H19.9208C19.3903 19 18.8816 19.2107 18.5066 19.5858C18.1315 19.9609 17.9208 20.4696 17.9208 21V25C17.9208 25.5304 18.1315 26.0391 18.5066 26.4142C18.8816 26.7893 19.3903 27 19.9208 27H35.9208C36.4512 27 36.9599 26.7893 37.335 26.4142C37.7101 26.0391 37.9208 25.5304 37.9208 25V21C37.9208 20.4696 37.7101 19.9609 37.335 19.5858C36.9599 19.2107 36.4512 19 35.9208 19ZM30.9208 23C30.9208 23.5523 30.4731 24 29.9208 24C29.3685 24 28.9208 23.5523 28.9208 23C28.9208 22.4477 29.3685 22 29.9208 22C30.4731 22 30.9208 22.4477 30.9208 23ZM34.9208 23C34.9208 23.5523 34.4731 24 33.9208 24C33.3685 24 32.9208 23.5523 32.9208 23C32.9208 22.4477 33.3685 22 33.9208 22C34.4731 22 34.9208 22.4477 34.9208 23ZM35.9208 29H19.9208C19.3903 29 18.8816 29.2107 18.5066 29.5858C18.1315 29.9609 17.9208 30.4696 17.9208 31V35C17.9208 35.5304 18.1315 36.0391 18.5066 36.4142C18.8816 36.7893 19.3903 37 19.9208 37H35.9208C36.4512 37 36.9599 36.7893 37.335 36.4142C37.7101 36.0391 37.9208 35.5304 37.9208 35V31C37.9208 30.4696 37.7101 29.9609 37.335 29.5858C36.9599 29.2107 36.4512 29 35.9208 29ZM30.9208 33C30.9208 33.5523 30.4731 34 29.9208 34C29.3685 34 28.9208 33.5523 28.9208 33C28.9208 32.4477 29.3685 32 29.9208 32C30.4731 32 30.9208 32.4477 30.9208 33ZM34.9208 33C34.9208 33.5523 34.4731 34 33.9208 34C33.3685 34 32.9208 33.5523 32.9208 33C32.9208 32.4477 33.3685 32 33.9208 32C34.4731 32 34.9208 32.4477 34.9208 33Z" fill="#DC7000"/>
</svg>
